<?xml version="1.0" encoding="UTF-8"?>
<svg id="Layer_1" data-name="Layer 1" xmlns="http://www.w3.org/2000/svg" viewBox="0 0 500.75 98.76">
  <defs>
    <style>
      .cls-1 {
        fill: none;
      }

      .cls-2 {
        fill: #bcab87;
      }
    </style>
  </defs>
  <g>
    <path d="M278.55,72.91v-18.49c0-6.03-3.05-8.36-7.4-8.36-1.69,0-3.54.48-5.39,1.45.24,1.29.4,2.73.4,4.34v21.06c0,3.7,1.13,4.34,4.82,4.66v.8h-20.9v-.8c3.38-.32,4.5-.97,4.5-4.66v-18.49c0-6.03-3.05-8.36-7.4-8.36-1.61,0-3.3.48-4.98,1.29v25.56c0,3.7,1.13,4.34,4.5,4.66v.8h-20.9v-.8c3.7-.32,4.82-.97,4.82-4.66v-17.36c0-4.82-1.45-8.04-4.18-9.33v-.48c4.5-1.13,10.77-4.02,15.59-6.75h.64l-.64,7.4c3.94-3.7,7.96-7.07,13.91-7.07,4.9,0,8.28,2.41,9.57,7.23,4.02-3.7,8.36-7.23,14.39-7.23,6.43,0,10.21,4.18,10.21,12.54v16.15c0,7.38,5.84,9.4,12.27,9.57v.8h-28.34v-.8c3.38-.32,4.5-.97,4.5-4.66Z"/>
    <path d="M302.84,66.8l.96-36.17c.16-7.24-3.94-9.33-9.08-9.97v-.8h23.47c.8,2.41,1.69,4.98,2.89,8.04l13.26,33.28,12.7-31.59c1.37-3.46,2.81-7.8,2.97-9.73h20.34v.8c-4.98.32-6.19,1.45-6.11,5.14l.96,46.63c.08,3.7,1.05,4.82,6.11,5.14v.8h-25.4v-.8c4.98-.32,6.19-1.45,6.11-5.14l-.97-47.03-21.62,52.98h-2.25l-21.38-53.06-1.05,41.48c-.16,7.24,3.78,10.13,10.21,10.77v.8h-21.22v-.8c5.14-.64,8.92-3.54,9.08-10.77Z"/>
    <path d="M371.36,65.87v-18.49c0-4.82-2.09-6.91-4.5-7.24v-.8c4.42,0,11.09-.32,15.92-.8h.64c-.48,3.21-.48,10.13-.48,16.56v8.2c0,6.03,3.38,8.36,7.64,8.36,1.61,0,3.38-.56,5.06-1.77v-22.51c0-4.82-2.09-6.91-5.47-7.24v-.8c5.39,0,12.06-.32,16.88-.8h.64c-.48,3.21-.48,10.13-.48,16.56v8.75s-.06,4.93,2.23,6.4l2.37,6.87c-5.6-1.23-10.23-.23-16.02,1.62h-.64l.64-7.96c-3.94,4.1-8.04,7.64-13.99,7.64-6.43,0-10.45-4.18-10.45-12.54Z"/>
    <path d="M407.21,75.92v-8.01c3.86,6.91,24.76,7.45,24.76,3.75,0-2.73-2.09-4.82-7.23-6.99l-2.81-1.21c-6.75-2.89-9.08-6.83-9.08-11.82,0-7.07,5.14-13.02,14.15-13.02,3.86,0,6.83.32,10.05,1.13l1.05,10.53h-.8c-3.54-6.11-6.75-10.37-10.61-10.37-2.81,0-5.79,1.69-5.79,5.39,0,2.81,1.37,4.66,7.32,7.24l2.81,1.21c7.32,3.14,9,7.24,9,11.74,0,7.72-6.75,13.34-15.92,13.34-4.5,0-14.31-1.93-16.88-2.9Z"/>
    <path d="M442.66,60.01c0-12.06,8.28-21.38,19.94-21.38,9.81,0,16.4,5.38,16.56,14.55h-24.76c.24,11.01,6.27,17.93,13.99,17.93,4.34,0,8.52-1.93,12.06-6.59l.64.4c-3.86,8.84-11.9,13.91-19.45,13.91-10.29,0-18.97-7.07-18.97-18.81ZM463.48,51.89c2.89,0,3.3-.72,3.3-3.3,0-4.66-1.45-8.52-5.14-8.52-2.81,0-6.99,2.97-7.24,11.82h9.08Z"/>
    <path class="cls-1" d="M203.71,40.53c-4.5,0-7.48,5.63-7.48,15.59,0,7.32,1.77,21.71,9.41,21.71,4.5,0,7.48-5.63,7.48-15.6,0-7.32-1.77-21.7-9.4-21.7Z"/>
    <path class="cls-1" d="M166.36,39.12c-12.06,0-21.46,8.28-21.46,20.58,0,9.12,5.37,16.12,13.43,18.02.95.22,1.85.31,2.65.31,2.39,0,3.98-.75,3.98-.75-1.93-.98-7.99-4.47-7.36-21.12.38-9.96,2.97-15.59,7.48-15.59,7.64,0,9.52,14.39,9.4,21.7-.23,14.05-7.91,16.81-7.91,16.81-2.97,1.09-5.67,1.58-8.14,1.58-10.37,0-16.73-8.6-22.12-17.1l-9.97-15.84c7.24-2.01,14.31-5.71,14.31-13.59,0-9-7.96-13.99-23.15-13.99h-25.72v.8c4.98.24,6.11,1.45,6.11,5.14v46.63c0,3.7-1.13,4.82-6.11,5.14v.8h26.45v-.8c-6.03-.32-7.15-1.45-7.15-5.14v-22.99h1.13c1.29,0,1.85.24,3.38,3.05l8.84,16.4c8.38,14.21,24.67,14.86,30.92,14.86,18.84,0,27.09-7.17,30.21-15.53-1.27-2.59-2-5.56-2-8.85s.72-6.41,1.99-9.08c-3.13-7.12-10.41-11.46-19.17-11.46ZM115,48.45h-3.94v-27.01h2.97c8.36,0,12.78,5.47,12.78,14.63,0,7.48-4.74,12.38-11.82,12.38Z"/>
    <path d="M205,39.08c-8.09,0-14.97,3.74-18.63,9.9,1.47,2.87,2.3,6.16,2.3,9.75,0,4.54-.8,8.33-2.17,11.49,3.6,5.67,10.15,9.05,17.86,9.05,12.06,0,21.46-8.28,21.46-20.58s-9.08-19.61-20.82-19.61ZM205.64,77.83c-7.64,0-9.41-14.39-9.41-21.71,0-9.97,2.97-15.59,7.48-15.59,7.64,0,9.4,14.39,9.4,21.7,0,9.97-2.97,15.6-7.48,15.6Z"/>
    <path d="M155.33,84.01c-6.25,0-22.53-.65-30.92-14.86l-8.84-16.4c-1.53-2.81-2.09-3.05-3.38-3.05h-1.13v22.99c0,3.7,1.13,4.82,7.15,5.14v.8h-26.45v-.8c4.98-.32,6.11-1.45,6.11-5.14V26.07c0-3.7-1.13-4.9-6.11-5.14v-.8h25.72c15.19,0,23.15,4.98,23.15,13.99,0,7.88-7.07,11.57-14.31,13.59l9.97,15.84c6.67,10.53,14.83,21.2,30.26,15.52,0,0,7.69-2.76,7.91-16.81.12-7.31-1.77-21.7-9.4-21.7-4.5,0-7.1,5.63-7.48,15.59-.63,16.65,5.43,20.14,7.36,21.12,0,0-2.83,1.33-6.63.44-8.06-1.9-13.43-8.9-13.43-18.02,0-12.3,9.41-20.58,21.46-20.58s20.82,7.8,20.82,19.61-5.8,25.31-31.85,25.31ZM115,48.42c7.07,0,11.82-4.9,11.82-12.38,0-9.16-4.42-14.63-12.78-14.63h-2.97v27.01h3.94Z"/>
  </g>
  <g>
    <path d="M25.44,78.33c-3,0-5.44-2.43-5.44-5.44v-31.42c0-1.82.91-3.52,2.42-4.52l23.56-15.71c1.83-1.22,4.21-1.22,6.03,0l23.56,15.71c2.5,1.67,3.17,5.04,1.51,7.54-1.67,2.5-5.04,3.17-7.54,1.51l-20.55-13.7-18.12,12.08v28.51c0,3-2.43,5.44-5.44,5.44Z"/>
    <path d="M72.56,78.33c-1.05,0-2.11-.31-3.02-.91l-23.56-15.71c-2.5-1.67-3.17-5.04-1.51-7.54,1.67-2.5,5.04-3.17,7.54-1.51l15.11,10.07v-21.26c0-3,2.43-5.44,5.44-5.44s5.44,2.43,5.44,5.44v31.42c0,2.01-1.1,3.85-2.87,4.79-.8.43-1.69.64-2.57.64Z"/>
    <path d="M25.44,78.33c-3,0-5.44-2.43-5.44-5.44v-31.42c0-3,2.43-5.44,5.44-5.44s5.44,2.43,5.44,5.44v31.42c0,3-2.43,5.44-5.44,5.44Z"/>
    <path class="cls-2" d="M72.56,78.33c-3,0-5.44-2.43-5.44-5.44v-31.42c0-3,2.43-5.44,5.44-5.44s5.44,2.43,5.44,5.44v31.42c0,3-2.43,5.44-5.44,5.44Z"/>
    <path class="cls-2" d="M49,62.62c-1.05,0-2.1-.3-3.02-.91l-23.56-15.71c-2.5-1.67-3.17-5.04-1.51-7.54,1.67-2.5,5.04-3.17,7.54-1.51l20.55,13.7,20.55-13.7c2.5-1.67,5.88-.99,7.54,1.51,1.67,2.5.99,5.87-1.51,7.54l-23.56,15.71c-.91.61-1.96.91-3.02.91Z"/>
  </g>
</svg>